PathFileType  4	(X/Y/Z) C:\Users\antoi\Documents\MyRepositories\mobilecap\ResultsAnalysis
DataRate	CameraRate	NumFrames	NumMarkers	Units	OrigDataRate	OrigDataStartFrame	OrigNumFrames
100.0	100.0	4	51	mm	100.0	161	256
Frame#	Time	r_knee			r_shank_antsup			r_ankle			r_calc			r_5meta			r_toe			L_knee			L_shank_antsup			L_ankle			L_calc			L_5meta			L_toe			r_sh2			r_sh3			r_sh4			L_sh2			L_sh3			r_thigh1			r_thigh2			r_thigh3			r_thigh4			r_thigh5			L_thigh1			L_thigh2			L_thigh3			L_thigh4			r.ASIS			r.PSIS			L.ASIS			L.PSIS			C7			R_Shoulder			L_Shoulder			R_Sternum			L_Sternum			R_humerus			R_elbow_med			R_elbow_lat			R_forearm			R_wrist_radius			R_wrist_ulna			L_humerus			L_elbow_med			L_elbow_lat			L_forearm			L_wrist_radius			L_wrist_ulna			R_HJC			L_HJC			R_HJC_reg			L_HJC_reg			
		X1	Y1	Z1	X2	Y2	Z2	X3	Y3	Z3	X4	Y4	Z4	X5	Y5	Z5	X6	Y6	Z6	X7	Y7	Z7	X8	Y8	Z8	X9	Y9	Z9	X10	Y10	Z10	X11	Y11	Z11	X12	Y12	Z12	X13	Y13	Z13	X14	Y14	Z14	X15	Y15	Z15	X16	Y16	Z16	X17	Y17	Z17	X18	Y18	Z18	X19	Y19	Z19	X20	Y20	Z20	X21	Y21	Z21	X22	Y22	Z22	X23	Y23	Z23	X24	Y24	Z24	X25	Y25	Z25	X26	Y26	Z26	X27	Y27	Z27	X28	Y28	Z28	X29	Y29	Z29	X30	Y30	Z30	X31	Y31	Z31	X32	Y32	Z32	X33	Y33	Z33	X34	Y34	Z34	X35	Y35	Z35	X36	Y36	Z36	X37	Y37	Z37	X38	Y38	Z38	X39	Y39	Z39	X40	Y40	Z40	X41	Y41	Z41	X42	Y42	Z42	X43	Y43	Z43	X44	Y44	Z44	X45	Y45	Z45	X46	Y46	Z46	X47	Y47	Z47	X48	Y48	Z48	X49	Y49	Z49	X50	Y50	Z50	X51	Y51	Z51	

161	1.60000000	53.02524	529.18752	-322.30611	-30.22090	433.04733	-280.99088	-265.63758	165.76553	-302.67077	-332.27684	162.25584	-361.84514	-178.17962	48.57098	-270.48970	-133.23426	59.82027	-322.47362	76.24497	522.46966	-781.99024	32.26365	336.93091	-786.97072	-221.87482	163.73937	-818.58600	-290.40562	135.92896	-754.85659	-131.38019	54.02854	-885.90795	-75.49057	63.93857	-831.31046	-110.11149	353.67206	-275.08656	21.39474	389.19765	-312.44844	-56.48851	305.28243	-317.35028	-17.23916	393.91278	-833.76842	-99.26959	307.75884	-828.72631	-173.04066	709.37660	-348.71649	-68.52597	665.92494	-332.34070	-75.15811	599.48206	-316.52055	-215.88038	602.11377	-362.12848	-106.97695	557.78935	-339.22435	-191.02126	629.00250	-786.17693	-66.96314	571.19038	-808.88377	-135.40304	720.14054	-758.71365	-14.48147	658.63191	-769.03208	-216.71833	772.49454	-428.47611	-367.27624	879.87017	-538.97045	-205.12023	759.09149	-701.39616	-358.76560	876.09840	-629.05714	81.28135	1116.79794	-588.77370	120.83499	1029.09268	-428.31973	97.16666	1035.58033	-745.87559	116.85266	957.31754	-561.20318	108.92059	946.19013	-600.46052	101.09666	847.67843	-258.73018	3.74014	733.74969	-197.29457	50.43898	795.14196	-145.22914	220.78295	748.75241	-265.82590	287.32503	732.18765	-320.50101	292.33543	707.89251	-293.14752	116.38042	804.51118	-869.57274	31.89082	702.82805	-901.87022	92.05772	738.96990	-952.47105	242.49751	750.49654	-813.22243	282.78618	761.45414	-755.91597	298.35283	737.26585	-775.44003	-328.84798	721.29199	-472.96278	-319.86283	715.43570	-670.14759	-318.41428	725.18759	-475.31844	-301.45215	717.67044	-654.86924	
162	1.61000000	53.71337	530.04461	-324.60836	-29.51476	433.70848	-282.33177	-265.12229	166.19138	-302.00412	-332.03728	162.82030	-361.09245	-178.05435	48.52001	-270.24943	-133.17832	59.70861	-322.35642	77.06546	524.94188	-780.27962	33.15836	338.78688	-785.71013	-220.62188	165.36373	-819.15568	-289.27660	138.22688	-755.63418	-130.92460	54.50780	-886.05441	-74.95416	63.99697	-831.43858	-109.30081	354.30853	-275.70187	21.81844	389.63203	-314.64470	-55.99355	305.72403	-318.58237	-16.11546	395.75087	-833.12738	-97.98569	309.32438	-828.48286	-167.82260	716.21303	-349.93769	-64.41025	670.19961	-333.69280	-72.57095	603.95514	-317.93569	-213.33409	610.15628	-363.37757	-105.44011	563.18118	-340.58648	-187.64989	637.71635	-785.56492	-64.80911	577.02018	-807.44951	-130.14423	727.78823	-759.10072	-9.88733	662.91963	-767.97457	-212.96802	783.63867	-428.54735	-362.99033	892.32550	-538.64393	-201.59222	770.19300	-702.05512	-354.61415	888.73583	-628.68953	82.88549	1133.08529	-588.30186	122.24740	1044.55472	-427.58599	98.57822	1051.18268	-746.28830	119.79991	973.67679	-560.90793	112.88833	963.73382	-601.57832	98.43486	860.18117	-260.76018	-0.92203	746.30719	-202.59434	45.66219	806.17960	-148.93319	217.34313	759.84111	-267.97172	284.28482	743.00026	-322.14300	288.85480	718.39110	-294.87062	111.60529	818.04044	-869.01122	24.64078	717.76982	-898.69871	84.33496	752.59795	-950.94624	237.75437	763.09932	-814.93332	279.14212	773.72031	-758.27874	294.22483	749.52142	-778.18044	-325.53028	733.31562	-473.03829	-316.93375	727.66393	-670.24637	-315.11532	736.69220	-475.48467	-298.37419	729.51783	-655.45475	
163	1.62000000	54.26810	530.96927	-326.72339	-29.03147	434.21334	-283.56670	-264.73245	166.53630	-301.34363	-331.87900	163.30571	-360.33162	-177.91659	48.44614	-270.05594	-133.12335	59.62435	-322.27024	77.79141	527.37914	-778.89098	34.00737	340.50751	-784.67061	-219.44567	166.84419	-819.75492	-288.31782	140.36542	-756.45929	-130.42153	55.01124	-886.42318	-74.50558	63.96156	-831.56710	-108.52977	354.83213	-276.22396	22.16554	390.16576	-316.36969	-55.63884	306.04922	-319.80961	-15.10693	397.42503	-832.67904	-96.78217	310.80035	-828.50388	-162.62622	723.02839	-351.20306	-60.35712	674.45445	-334.84320	-70.08397	608.43556	-319.24006	-210.64678	618.21907	-364.80230	-103.99369	568.67751	-341.85438	-184.08966	646.52353	-785.01519	-62.67048	582.66440	-805.43355	-124.57723	735.29666	-759.09530	-5.31313	667.63631	-767.03738	-209.16794	795.40224	-428.46531	-358.64588	904.92312	-538.27469	-197.83424	782.00097	-702.37971	-350.41026	901.55368	-628.25022	84.25767	1150.12097	-587.82457	123.48255	1060.30308	-427.02277	99.77429	1067.44183	-746.52231	122.68961	990.87590	-560.74452	117.32810	982.78894	-604.39753	95.45425	873.27985	-262.59811	-5.86159	759.59681	-207.94679	40.65266	817.73232	-152.80091	213.88005	771.56186	-269.40195	281.15778	754.10525	-323.58267	285.11717	729.16978	-296.44251	106.31383	832.52427	-868.40843	17.18080	733.73813	-895.42682	76.06675	767.57468	-949.64287	232.68434	776.44682	-817.13388	275.28380	786.42776	-761.21078	289.90858	762.43427	-781.61656	-321.94783	745.65373	-472.99296	-313.56666	740.22460	-670.21719	-311.50047	748.62504	-475.45244	-294.99992	741.87387	-655.72695	
164	1.63000000	54.56510	531.96149	-328.64774	-28.66374	434.59672	-284.76783	-264.49232	166.80886	-300.96939	-331.74210	163.75835	-359.71662	-177.77589	48.43608	-269.88966	-133.08800	59.57947	-322.24172	78.35189	529.65016	-777.71815	34.73190	342.19957	-783.92042	-218.33208	168.17460	-820.35101	-287.53278	142.37620	-757.18733	-129.89774	55.49290	-886.74176	-74.16085	63.89673	-831.61751	-107.91690	355.17787	-276.91494	22.48238	390.80034	-317.69481	-55.13749	306.57207	-320.66343	-14.14580	398.83007	-832.30559	-95.67181	312.14973	-828.70140	-157.15863	729.95762	-352.41605	-56.20854	678.72686	-335.80991	-67.75598	612.80795	-320.48966	-207.81420	626.28252	-366.43384	-102.74458	574.42324	-343.21324	-180.35117	655.40581	-784.62593	-60.59739	588.38042	-803.88861	-118.75478	742.85422	-758.86515	-0.94149	672.53680	-766.17790	-205.40405	807.54378	-428.36995	-354.30007	917.56690	-537.80418	-193.99437	794.35813	-702.76780	-346.09818	914.49983	-627.86696	85.30820	1167.92414	-587.44856	124.86018	1077.08744	-425.99951	100.73259	1084.55268	-746.68244	125.67540	1009.01829	-560.77013	120.45953	1001.04817	-604.61240	92.30350	887.09514	-264.21898	-10.80789	773.51816	-213.61482	35.56291	830.10294	-156.87148	210.14148	783.31710	-270.84305	277.90494	765.36299	-324.88900	281.26280	740.27924	-297.55878	100.65894	848.23406	-868.02935	9.35281	750.97549	-892.60144	67.31141	783.83174	-948.51410	227.35559	790.50201	-819.73986	271.27895	799.70511	-764.72847	285.34234	775.92709	-785.98144	-318.20816	758.13997	-473.02701	-309.96097	753.07110	-670.26681	-307.83169	760.68105	-475.54905	-291.38440	754.52932	-656.16412	
